<svg xmlns="http://www.w3.org/2000/svg" xmlns:xlink="http://www.w3.org/1999/xlink" width="90" zoomAndPan="magnify" viewBox="0 0 67.5 48" height="64" preserveAspectRatio="xMidYMid meet" version="1.0"><defs><g/><clipPath id="2810ed998c"><path d="M 22.863281 5.199219 L 53.015625 5.199219 L 53.015625 20.6875 L 22.863281 20.6875 Z M 22.863281 5.199219 " clip-rule="nonzero"/></clipPath><clipPath id="6b4f5d852b"><path d="M 43.277344 17.433594 C 42.898438 17.433594 42.574219 17.679688 42.453125 18.023438 L 37.933594 18.023438 L 35.875 20.097656 L 23.539062 20.097656 C 23.582031 20.308594 23.621094 20.507812 23.660156 20.6875 L 36.117188 20.6875 L 38.175781 18.609375 L 42.453125 18.609375 C 42.574219 18.953125 42.898438 19.199219 43.277344 19.199219 C 43.761719 19.199219 44.15625 18.804688 44.15625 18.316406 C 44.15625 17.828125 43.761719 17.433594 43.277344 17.433594 Z M 52.136719 14.09375 C 51.757812 14.09375 51.433594 14.339844 51.3125 14.683594 L 40.339844 14.683594 L 38.058594 12.386719 L 30.511719 12.386719 L 29.425781 13.484375 L 22.863281 13.484375 C 22.863281 13.679688 22.867188 13.875 22.871094 14.070312 L 29.667969 14.070312 L 30.753906 12.972656 L 37.820312 12.972656 L 40.097656 15.269531 L 51.3125 15.269531 C 51.433594 15.613281 51.757812 15.859375 52.136719 15.859375 C 52.621094 15.859375 53.015625 15.464844 53.015625 14.976562 C 53.015625 14.488281 52.621094 14.09375 52.136719 14.09375 Z M 33.117188 10.8125 L 45.484375 10.8125 C 45.605469 11.15625 45.929688 11.402344 46.308594 11.402344 C 46.792969 11.402344 47.1875 11.007812 47.1875 10.519531 C 47.1875 10.03125 46.792969 9.636719 46.308594 9.636719 C 45.929688 9.636719 45.605469 9.882812 45.484375 10.226562 L 33.359375 10.226562 L 31.378906 8.226562 L 23.503906 8.226562 C 23.449219 8.421875 23.398438 8.617188 23.351562 8.816406 L 31.136719 8.816406 Z M 35.726562 7.597656 L 38.660156 7.597656 C 38.78125 7.941406 39.105469 8.1875 39.488281 8.1875 C 39.972656 8.1875 40.363281 7.789062 40.363281 7.300781 C 40.363281 6.816406 39.972656 6.417969 39.488281 6.417969 C 39.105469 6.417969 38.78125 6.664062 38.660156 7.007812 L 35.96875 7.007812 L 34.175781 5.199219 L 24.804688 5.199219 C 24.777344 5.246094 24.75 5.289062 24.722656 5.332031 C 24.632812 5.480469 24.546875 5.632812 24.464844 5.789062 L 33.933594 5.789062 Z M 31.492188 15.550781 L 36.160156 15.550781 C 36.277344 15.894531 36.601562 16.140625 36.984375 16.140625 C 37.46875 16.140625 37.863281 15.742188 37.863281 15.253906 C 37.863281 14.769531 37.46875 14.371094 36.984375 14.371094 C 36.601562 14.371094 36.277344 14.617188 36.160156 14.960938 L 31.253906 14.960938 L 29.425781 16.804688 L 23.042969 16.804688 C 23.066406 17.003906 23.085938 17.199219 23.109375 17.390625 L 29.667969 17.390625 Z M 31.492188 15.550781 " clip-rule="nonzero"/></clipPath><clipPath id="6cdbb602de"><path d="M 43.277344 17.433594 C 42.898438 17.433594 42.574219 17.679688 42.453125 18.023438 L 37.933594 18.023438 L 35.875 20.097656 L 23.539062 20.097656 C 23.582031 20.308594 23.621094 20.507812 23.660156 20.6875 L 36.117188 20.6875 L 38.175781 18.609375 L 42.453125 18.609375 C 42.574219 18.953125 42.898438 19.199219 43.277344 19.199219 C 43.761719 19.199219 44.15625 18.804688 44.15625 18.316406 C 44.15625 17.828125 43.761719 17.433594 43.277344 17.433594 Z M 52.136719 14.09375 C 51.757812 14.09375 51.433594 14.339844 51.3125 14.683594 L 40.339844 14.683594 L 38.058594 12.386719 L 30.511719 12.386719 L 29.425781 13.484375 L 22.863281 13.484375 C 22.863281 13.679688 22.867188 13.875 22.871094 14.070312 L 29.667969 14.070312 L 30.753906 12.972656 L 37.820312 12.972656 L 40.097656 15.269531 L 51.3125 15.269531 C 51.433594 15.613281 51.757812 15.859375 52.136719 15.859375 C 52.621094 15.859375 53.015625 15.464844 53.015625 14.976562 C 53.015625 14.488281 52.621094 14.09375 52.136719 14.09375 Z M 33.117188 10.8125 L 45.484375 10.8125 C 45.605469 11.15625 45.929688 11.402344 46.308594 11.402344 C 46.792969 11.402344 47.1875 11.007812 47.1875 10.519531 C 47.1875 10.03125 46.792969 9.636719 46.308594 9.636719 C 45.929688 9.636719 45.605469 9.882812 45.484375 10.226562 L 33.359375 10.226562 L 31.378906 8.226562 L 23.503906 8.226562 C 23.449219 8.421875 23.398438 8.617188 23.351562 8.816406 L 31.136719 8.816406 Z M 35.726562 7.597656 L 38.660156 7.597656 C 38.78125 7.941406 39.105469 8.1875 39.488281 8.1875 C 39.972656 8.1875 40.363281 7.789062 40.363281 7.300781 C 40.363281 6.816406 39.972656 6.417969 39.488281 6.417969 C 39.105469 6.417969 38.78125 6.664062 38.660156 7.007812 L 35.96875 7.007812 L 34.175781 5.199219 L 24.804688 5.199219 C 24.777344 5.246094 24.75 5.289062 24.722656 5.332031 C 24.632812 5.480469 24.546875 5.632812 24.464844 5.789062 L 33.933594 5.789062 Z M 31.492188 15.550781 L 36.160156 15.550781 C 36.277344 15.894531 36.601562 16.140625 36.984375 16.140625 C 37.46875 16.140625 37.863281 15.742188 37.863281 15.253906 C 37.863281 14.769531 37.46875 14.371094 36.984375 14.371094 C 36.601562 14.371094 36.277344 14.617188 36.160156 14.960938 L 31.253906 14.960938 L 29.425781 16.804688 L 23.042969 16.804688 C 23.066406 17.003906 23.085938 17.199219 23.109375 17.390625 L 29.667969 17.390625 L 31.492188 15.550781 " clip-rule="nonzero"/></clipPath><radialGradient gradientTransform="matrix(-0.995895, 0, 0, -1.004105, 58.311887, -6.444343)" gradientUnits="userSpaceOnUse" r="91.117306" cx="0" id="e1eb583bc2" cy="0" fx="0" fy="0"><stop stop-opacity="1" stop-color="rgb(94.099426%, 61.004639%, 6.494141%)" offset="0"/><stop stop-opacity="1" stop-color="rgb(94.099426%, 60.627747%, 6.694031%)" offset="0.0078125"/><stop stop-opacity="1" stop-color="rgb(94.099426%, 60.400391%, 6.698608%)" offset="0.0195312"/><stop stop-opacity="1" stop-color="rgb(94.099426%, 60.169983%, 6.698608%)" offset="0.0234375"/><stop stop-opacity="1" stop-color="rgb(94.099426%, 59.791565%, 6.70166%)" offset="0.0351562"/><stop stop-opacity="1" stop-color="rgb(94.099426%, 59.599304%, 6.90155%)" offset="0.0390625"/><stop stop-opacity="1" stop-color="rgb(94.099426%, 59.599304%, 7.098389%)" offset="0.0429688"/><stop stop-opacity="1" stop-color="rgb(94.099426%, 59.410095%, 7.099915%)" offset="0.046875"/><stop stop-opacity="1" stop-color="rgb(94.099426%, 59.034729%, 7.099915%)" offset="0.0507812"/><stop stop-opacity="1" stop-color="rgb(94.099426%, 58.824158%, 7.099915%)" offset="0.0625"/><stop stop-opacity="1" stop-color="rgb(94.099426%, 58.782959%, 7.115173%)" offset="0.0664062"/><stop stop-opacity="1" stop-color="rgb(94.099426%, 58.581543%, 7.315063%)" offset="0.0703125"/><stop stop-opacity="1" stop-color="rgb(94.099426%, 58.200073%, 7.499695%)" offset="0.0820312"/><stop stop-opacity="1" stop-color="rgb(94.099426%, 57.818604%, 7.499695%)" offset="0.0859375"/><stop stop-opacity="1" stop-color="rgb(94.099426%, 57.466125%, 7.649231%)" offset="0.0976562"/><stop stop-opacity="1" stop-color="rgb(94.099426%, 57.284546%, 7.798767%)" offset="0.109375"/><stop stop-opacity="1" stop-color="rgb(94.099426%, 57.084656%, 7.798767%)" offset="0.113281"/><stop stop-opacity="1" stop-color="rgb(94.099426%, 56.703186%, 7.798767%)" offset="0.125"/><stop stop-opacity="1" stop-color="rgb(94.099426%, 56.321716%, 7.980347%)" offset="0.128906"/><stop stop-opacity="1" stop-color="rgb(94.099426%, 56.117249%, 8.180237%)" offset="0.140625"/><stop stop-opacity="1" stop-color="rgb(94.099426%, 56.077576%, 8.198547%)" offset="0.144531"/><stop stop-opacity="1" stop-color="rgb(94.099426%, 55.870056%, 8.198547%)" offset="0.148438"/><stop stop-opacity="1" stop-color="rgb(94.099426%, 55.491638%, 8.198547%)" offset="0.160156"/><stop stop-opacity="1" stop-color="rgb(94.099426%, 55.110168%, 8.387756%)" offset="0.171875"/><stop stop-opacity="1" stop-color="rgb(94.099426%, 54.734802%, 8.587646%)" offset="0.175781"/><stop stop-opacity="1" stop-color="rgb(94.099426%, 54.502869%, 8.599854%)" offset="0.1875"/><stop stop-opacity="1" stop-color="rgb(94.099426%, 54.272461%, 8.599854%)" offset="0.191406"/><stop stop-opacity="1" stop-color="rgb(94.099426%, 53.892517%, 8.601379%)" offset="0.203125"/><stop stop-opacity="1" stop-color="rgb(94.099426%, 53.69873%, 8.798218%)" offset="0.207031"/><stop stop-opacity="1" stop-color="rgb(94.099426%, 53.69873%, 8.996582%)" offset="0.210938"/><stop stop-opacity="1" stop-color="rgb(94.099426%, 53.511047%, 8.999634%)" offset="0.214844"/><stop stop-opacity="1" stop-color="rgb(94.099426%, 53.311157%, 8.999634%)" offset="0.21875"/><stop stop-opacity="1" stop-color="rgb(94.099426%, 53.29895%, 8.999634%)" offset="0.222656"/><stop stop-opacity="1" stop-color="rgb(94.099426%, 53.09906%, 8.999634%)" offset="0.226562"/><stop stop-opacity="1" stop-color="rgb(94.099426%, 52.89917%, 8.999634%)" offset="0.230469"/><stop stop-opacity="1" stop-color="rgb(94.099426%, 52.885437%, 8.999634%)" offset="0.234375"/><stop stop-opacity="1" stop-color="rgb(94.099426%, 52.685547%, 9.008789%)" offset="0.238281"/><stop stop-opacity="1" stop-color="rgb(94.099426%, 52.352905%, 9.208679%)" offset="0.242188"/><stop stop-opacity="1" stop-color="rgb(94.099426%, 52.107239%, 9.399414%)" offset="0.253906"/><stop stop-opacity="1" stop-color="rgb(94.099426%, 51.902771%, 9.399414%)" offset="0.257812"/><stop stop-opacity="1" stop-color="rgb(94.099426%, 51.699829%, 9.399414%)" offset="0.265625"/><stop stop-opacity="1" stop-color="rgb(94.099426%, 51.49231%, 9.407043%)" offset="0.273438"/><stop stop-opacity="1" stop-color="rgb(94.099426%, 51.187134%, 9.606934%)" offset="0.277344"/><stop stop-opacity="1" stop-color="rgb(94.099426%, 50.796509%, 9.799194%)" offset="0.285156"/><stop stop-opacity="1" stop-color="rgb(94.099426%, 50.59967%, 9.799194%)" offset="0.292969"/><stop stop-opacity="1" stop-color="rgb(94.099426%, 50.408936%, 9.799194%)" offset="0.300781"/><stop stop-opacity="1" stop-color="rgb(94.099426%, 50.109863%, 9.898376%)" offset="0.308594"/><stop stop-opacity="1" stop-color="rgb(94.099426%, 49.899292%, 10.098267%)" offset="0.3125"/><stop stop-opacity="1" stop-color="rgb(94.099426%, 49.694824%, 10.198975%)" offset="0.320312"/><stop stop-opacity="1" stop-color="rgb(94.099426%, 49.397278%, 10.198975%)" offset="0.328125"/><stop stop-opacity="1" stop-color="rgb(94.099426%, 49.099731%, 10.198975%)" offset="0.335938"/><stop stop-opacity="1" stop-color="rgb(94.099426%, 48.89679%, 10.301208%)" offset="0.34375"/><stop stop-opacity="1" stop-color="rgb(94.099426%, 48.686218%, 10.501099%)" offset="0.351562"/><stop stop-opacity="1" stop-color="rgb(94.099426%, 48.381042%, 10.598755%)" offset="0.355469"/><stop stop-opacity="1" stop-color="rgb(94.099426%, 47.991943%, 10.598755%)" offset="0.363281"/><stop stop-opacity="1" stop-color="rgb(94.099426%, 47.799683%, 10.598755%)" offset="0.371094"/><stop stop-opacity="1" stop-color="rgb(94.099426%, 47.654724%, 10.791016%)" offset="0.378906"/><stop stop-opacity="1" stop-color="rgb(94.099426%, 47.315979%, 10.990906%)" offset="0.386719"/><stop stop-opacity="1" stop-color="rgb(94.099426%, 47.102356%, 10.998535%)" offset="0.394531"/><stop stop-opacity="1" stop-color="rgb(94.099426%, 46.887207%, 10.998535%)" offset="0.402344"/><stop stop-opacity="1" stop-color="rgb(94.099426%, 46.496582%, 10.998535%)" offset="0.410156"/><stop stop-opacity="1" stop-color="rgb(94.099426%, 46.105957%, 11.192322%)" offset="0.417969"/><stop stop-opacity="1" stop-color="rgb(94.099426%, 45.904541%, 11.393738%)" offset="0.425781"/><stop stop-opacity="1" stop-color="rgb(94.099426%, 45.799255%, 11.399841%)" offset="0.433594"/><stop stop-opacity="1" stop-color="rgb(94.099426%, 45.588684%, 11.399841%)" offset="0.4375"/><stop stop-opacity="1" stop-color="rgb(94.099426%, 45.288086%, 11.399841%)" offset="0.441406"/><stop stop-opacity="1" stop-color="rgb(94.099426%, 44.902039%, 11.59668%)" offset="0.457031"/><stop stop-opacity="1" stop-color="rgb(94.099426%, 44.511414%, 11.795044%)" offset="0.464844"/><stop stop-opacity="1" stop-color="rgb(94.099426%, 44.206238%, 11.799622%)" offset="0.472656"/><stop stop-opacity="1" stop-color="rgb(94.099426%, 43.997192%, 11.799622%)" offset="0.476562"/><stop stop-opacity="1" stop-color="rgb(94.099426%, 43.79425%, 11.799622%)" offset="0.484375"/><stop stop-opacity="1" stop-color="rgb(94.099426%, 43.495178%, 11.898804%)" offset="0.492188"/><stop stop-opacity="1" stop-color="rgb(94.099426%, 43.199158%, 12.098694%)" offset="0.5"/><stop stop-opacity="1" stop-color="rgb(94.099426%, 43.099976%, 12.199402%)" offset="0.507812"/><stop stop-opacity="1" stop-color="rgb(94.099426%, 42.918396%, 12.199402%)" offset="0.511719"/><stop stop-opacity="1" stop-color="rgb(94.099426%, 42.567444%, 12.199402%)" offset="0.515625"/><stop stop-opacity="1" stop-color="rgb(94.099426%, 42.399597%, 12.199402%)" offset="0.527344"/><stop stop-opacity="1" stop-color="rgb(94.099426%, 42.391968%, 12.199402%)" offset="0.53125"/><stop stop-opacity="1" stop-color="rgb(94.099426%, 42.192078%, 12.200928%)" offset="0.535156"/><stop stop-opacity="1" stop-color="rgb(94.099426%, 41.999817%, 12.350464%)" offset="0.539062"/><stop stop-opacity="1" stop-color="rgb(94.099426%, 41.80603%, 12.498474%)" offset="0.542969"/><stop stop-opacity="1" stop-color="rgb(94.099426%, 41.426086%, 12.5%)" offset="0.546875"/><stop stop-opacity="1" stop-color="rgb(94.099426%, 41.218567%, 12.5%)" offset="0.558594"/><stop stop-opacity="1" stop-color="rgb(94.099426%, 41.178894%, 12.5%)" offset="0.5625"/><stop stop-opacity="1" stop-color="rgb(94.099426%, 40.9729%, 12.506104%)" offset="0.566406"/><stop stop-opacity="1" stop-color="rgb(94.099426%, 40.592957%, 12.705994%)" offset="0.578125"/><stop stop-opacity="1" stop-color="rgb(94.099426%, 40.39917%, 12.89978%)" offset="0.582031"/><stop stop-opacity="1" stop-color="rgb(94.099426%, 40.206909%, 12.89978%)" offset="0.585938"/><stop stop-opacity="1" stop-color="rgb(94.099426%, 39.828491%, 12.89978%)" offset="0.589844"/><stop stop-opacity="1" stop-color="rgb(94.099426%, 39.620972%, 12.89978%)" offset="0.601562"/><stop stop-opacity="1" stop-color="rgb(94.099426%, 39.579773%, 12.89978%)" offset="0.605469"/><stop stop-opacity="1" stop-color="rgb(94.099426%, 39.375305%, 12.904358%)" offset="0.609375"/><stop stop-opacity="1" stop-color="rgb(94.099426%, 38.993835%, 13.104248%)" offset="0.621094"/><stop stop-opacity="1" stop-color="rgb(94.099426%, 38.606262%, 13.299561%)" offset="0.625"/><stop stop-opacity="1" stop-color="rgb(94.099426%, 38.218689%, 13.299561%)" offset="0.636719"/><stop stop-opacity="1" stop-color="rgb(94.099426%, 38.002014%, 13.299561%)" offset="0.644531"/><stop stop-opacity="1" stop-color="rgb(94.099426%, 37.786865%, 13.302612%)" offset="0.652344"/><stop stop-opacity="1" stop-color="rgb(94.099426%, 37.446594%, 13.502502%)" offset="0.660156"/><stop stop-opacity="1" stop-color="rgb(94.099426%, 37.104797%, 13.697815%)" offset="0.667969"/><stop stop-opacity="1" stop-color="rgb(94.099426%, 36.903381%, 13.699341%)" offset="0.675781"/><stop stop-opacity="1" stop-color="rgb(94.099426%, 36.798096%, 13.699341%)" offset="0.683594"/><stop stop-opacity="1" stop-color="rgb(94.099426%, 36.58905%, 13.699341%)" offset="0.6875"/><stop stop-opacity="1" stop-color="rgb(94.099426%, 36.283875%, 13.703918%)" offset="0.691406"/><stop stop-opacity="1" stop-color="rgb(94.099426%, 35.89325%, 13.903809%)" offset="0.699219"/><stop stop-opacity="1" stop-color="rgb(94.099426%, 35.507202%, 14.099121%)" offset="0.714844"/><stop stop-opacity="1" stop-color="rgb(94.099426%, 35.205078%, 14.099121%)" offset="0.722656"/><stop stop-opacity="1" stop-color="rgb(94.099426%, 34.997559%, 14.099121%)" offset="0.726562"/><stop stop-opacity="1" stop-color="rgb(94.099426%, 34.794617%, 14.202881%)" offset="0.734375"/><stop stop-opacity="1" stop-color="rgb(94.099426%, 34.494019%, 14.402771%)" offset="0.742188"/><stop stop-opacity="1" stop-color="rgb(94.099426%, 34.197998%, 14.498901%)" offset="0.75"/><stop stop-opacity="1" stop-color="rgb(94.099426%, 34.098816%, 14.498901%)" offset="0.757812"/><stop stop-opacity="1" stop-color="rgb(94.099426%, 33.917236%, 14.498901%)" offset="0.761719"/><stop stop-opacity="1" stop-color="rgb(94.099426%, 33.717346%, 14.498901%)" offset="0.765625"/><stop stop-opacity="1" stop-color="rgb(94.099426%, 33.499146%, 14.498901%)" offset="0.769531"/><stop stop-opacity="1" stop-color="rgb(94.099426%, 33.299255%, 14.498901%)" offset="0.773438"/><stop stop-opacity="1" stop-color="rgb(94.099426%, 33.287048%, 14.498901%)" offset="0.777344"/><stop stop-opacity="1" stop-color="rgb(94.099426%, 33.087158%, 14.498901%)" offset="0.78125"/><stop stop-opacity="1" stop-color="rgb(94.099426%, 32.899475%, 14.501953%)" offset="0.785156"/><stop stop-opacity="1" stop-color="rgb(94.099426%, 32.899475%, 14.700317%)" offset="0.789062"/><stop stop-opacity="1" stop-color="rgb(94.099426%, 32.705688%, 14.897156%)" offset="0.792969"/><stop stop-opacity="1" stop-color="rgb(94.099426%, 32.354736%, 14.898682%)" offset="0.796875"/><stop stop-opacity="1" stop-color="rgb(94.099426%, 32.199097%, 14.898682%)" offset="0.808594"/><stop stop-opacity="1" stop-color="rgb(94.099426%, 31.988525%, 14.898682%)" offset="0.8125"/><stop stop-opacity="1" stop-color="rgb(94.099426%, 31.588745%, 14.898682%)" offset="0.816406"/><stop stop-opacity="1" stop-color="rgb(94.099426%, 31.39801%, 14.898682%)" offset="0.824219"/><stop stop-opacity="1" stop-color="rgb(94.099426%, 31.202698%, 15.09552%)" offset="0.832031"/><stop stop-opacity="1" stop-color="rgb(94.099426%, 30.812073%, 15.29541%)" offset="0.839844"/><stop stop-opacity="1" stop-color="rgb(94.099426%, 30.595398%, 15.299988%)" offset="0.847656"/><stop stop-opacity="1" stop-color="rgb(94.099426%, 30.380249%, 15.299988%)" offset="0.855469"/><stop stop-opacity="1" stop-color="rgb(94.099426%, 29.99115%, 15.299988%)" offset="0.863281"/><stop stop-opacity="1" stop-color="rgb(94.099426%, 29.608154%, 15.489197%)" offset="0.878906"/><stop stop-opacity="1" stop-color="rgb(94.099426%, 29.408264%, 15.689087%)" offset="0.882812"/><stop stop-opacity="1" stop-color="rgb(94.099426%, 29.217529%, 15.699768%)" offset="0.886719"/><stop stop-opacity="1" stop-color="rgb(94.099426%, 29.017639%, 15.699768%)" offset="0.890625"/><stop stop-opacity="1" stop-color="rgb(94.099426%, 28.97644%, 15.699768%)" offset="0.894531"/><stop stop-opacity="1" stop-color="rgb(94.099426%, 28.77655%, 15.699768%)" offset="0.898438"/><stop stop-opacity="1" stop-color="rgb(94.099426%, 28.585815%, 15.699768%)" offset="0.902344"/><stop stop-opacity="1" stop-color="rgb(94.099426%, 28.385925%, 15.699768%)" offset="0.90625"/><stop stop-opacity="1" stop-color="rgb(94.099426%, 28.004456%, 15.893555%)" offset="0.917969"/><stop stop-opacity="1" stop-color="rgb(94.099426%, 27.633667%, 16.093445%)" offset="0.925781"/><stop stop-opacity="1" stop-color="rgb(94.099426%, 27.278137%, 16.099548%)" offset="0.941406"/><stop stop-opacity="1" stop-color="rgb(94.099426%, 27.087402%, 16.099548%)" offset="0.945312"/><stop stop-opacity="1" stop-color="rgb(94.099426%, 26.887512%, 16.099548%)" offset="0.949219"/><stop stop-opacity="1" stop-color="rgb(94.099426%, 26.698303%, 16.099548%)" offset="0.953125"/><stop stop-opacity="1" stop-color="rgb(94.099426%, 26.502991%, 16.099548%)" offset="0.957031"/><stop stop-opacity="1" stop-color="rgb(94.099426%, 26.303101%, 16.099548%)" offset="0.964844"/><stop stop-opacity="1" stop-color="rgb(94.099426%, 26.119995%, 16.27655%)" offset="0.972656"/><stop stop-opacity="1" stop-color="rgb(94.099426%, 25.909424%, 16.47644%)" offset="0.976562"/><stop stop-opacity="1" stop-color="rgb(94.099426%, 25.686646%, 16.499329%)" offset="0.980469"/><stop stop-opacity="1" stop-color="rgb(94.099426%, 25.494385%, 16.499329%)" offset="0.988281"/><stop stop-opacity="1" stop-color="rgb(94.099426%, 25.294495%, 16.499329%)" offset="0.992188"/><stop stop-opacity="1" stop-color="rgb(94.099426%, 25.099182%, 16.499329%)" offset="1"/></radialGradient><clipPath id="5247f1a324"><path d="M 13.367188 0.59375 L 30.359375 0.59375 L 30.359375 27.042969 L 13.367188 27.042969 Z M 13.367188 0.59375 " clip-rule="nonzero"/></clipPath><clipPath id="c78352329b"><path d="M 30.335938 0.609375 C 30.335938 0.609375 17.574219 -0.195312 16.191406 11.109375 C 16.066406 12.144531 16.097656 14.285156 15.726562 15.261719 C 15.367188 16.210938 13.113281 17.597656 13.394531 18.574219 C 13.570312 19.183594 15.804688 19.335938 15.804688 19.335938 C 15.804688 19.335938 14.992188 20.585938 15.183594 20.980469 C 15.296875 21.21875 16.117188 21.039062 16.191406 21.292969 C 16.277344 21.585938 15.402344 21.929688 15.414062 22.234375 C 15.4375 22.691406 16.191406 23.015625 16.660156 23.566406 C 17.125 24.113281 16.433594 25.90625 16.890625 26.464844 C 18.097656 27.933594 20.21875 26.667969 23.1875 22.234375 C 23.1875 22.234375 17.824219 3.117188 30.335938 0.609375 Z M 30.335938 0.609375 " clip-rule="nonzero"/></clipPath><clipPath id="f43657698b"><path d="M 30.335938 0.609375 C 30.335938 0.609375 17.574219 -0.195312 16.191406 11.109375 C 16.066406 12.144531 16.097656 14.285156 15.726562 15.261719 C 15.367188 16.210938 13.113281 17.597656 13.394531 18.574219 C 13.570312 19.183594 15.804688 19.335938 15.804688 19.335938 C 15.804688 19.335938 14.992188 20.585938 15.183594 20.980469 C 15.296875 21.21875 16.117188 21.039062 16.191406 21.292969 C 16.277344 21.585938 15.402344 21.929688 15.414062 22.234375 C 15.4375 22.691406 16.191406 23.015625 16.660156 23.566406 C 17.125 24.113281 16.433594 25.90625 16.890625 26.464844 C 18.097656 27.933594 20.21875 26.667969 23.1875 22.234375 C 23.1875 22.234375 17.824219 3.117188 30.335938 0.609375 " clip-rule="nonzero"/></clipPath><clipPath id="bf7bdfe67b"><path d="M 43.035156 8.050781 L 18.160156 -8.097656 L 0.414062 19.691406 L 25.289062 35.835938 Z M 43.035156 8.050781 " clip-rule="nonzero"/></clipPath><radialGradient gradientTransform="matrix(-0.53916, 0.84422, -0.837318, -0.543604, 30.568961, 0.80555)" gradientUnits="userSpaceOnUse" r="28.537834" cx="0" id="461c2f5e8c" cy="0" fx="0" fy="0"><stop stop-opacity="1" stop-color="rgb(94.099426%, 61.004639%, 6.494141%)" offset="0"/><stop stop-opacity="1" stop-color="rgb(94.099426%, 60.627747%, 6.694031%)" offset="0.0078125"/><stop stop-opacity="1" stop-color="rgb(94.099426%, 60.400391%, 6.698608%)" offset="0.0195312"/><stop stop-opacity="1" stop-color="rgb(94.099426%, 60.169983%, 6.698608%)" offset="0.0234375"/><stop stop-opacity="1" stop-color="rgb(94.099426%, 59.791565%, 6.70166%)" offset="0.0351562"/><stop stop-opacity="1" stop-color="rgb(94.099426%, 59.599304%, 6.90155%)" offset="0.0390625"/><stop stop-opacity="1" stop-color="rgb(94.099426%, 59.599304%, 7.098389%)" offset="0.0429688"/><stop stop-opacity="1" stop-color="rgb(94.099426%, 59.410095%, 7.099915%)" offset="0.046875"/><stop stop-opacity="1" stop-color="rgb(94.099426%, 59.034729%, 7.099915%)" offset="0.0507812"/><stop stop-opacity="1" stop-color="rgb(94.099426%, 58.824158%, 7.099915%)" offset="0.0625"/><stop stop-opacity="1" stop-color="rgb(94.099426%, 58.782959%, 7.115173%)" offset="0.0664062"/><stop stop-opacity="1" stop-color="rgb(94.099426%, 58.581543%, 7.315063%)" offset="0.0703125"/><stop stop-opacity="1" stop-color="rgb(94.099426%, 58.200073%, 7.499695%)" offset="0.0820312"/><stop stop-opacity="1" stop-color="rgb(94.099426%, 57.818604%, 7.499695%)" offset="0.0859375"/><stop stop-opacity="1" stop-color="rgb(94.099426%, 57.466125%, 7.649231%)" offset="0.0976562"/><stop stop-opacity="1" stop-color="rgb(94.099426%, 57.284546%, 7.798767%)" offset="0.109375"/><stop stop-opacity="1" stop-color="rgb(94.099426%, 57.084656%, 7.798767%)" offset="0.113281"/><stop stop-opacity="1" stop-color="rgb(94.099426%, 56.703186%, 7.798767%)" offset="0.125"/><stop stop-opacity="1" stop-color="rgb(94.099426%, 56.321716%, 7.980347%)" offset="0.128906"/><stop stop-opacity="1" stop-color="rgb(94.099426%, 56.117249%, 8.180237%)" offset="0.140625"/><stop stop-opacity="1" stop-color="rgb(94.099426%, 56.077576%, 8.198547%)" offset="0.144531"/><stop stop-opacity="1" stop-color="rgb(94.099426%, 55.870056%, 8.198547%)" offset="0.148438"/><stop stop-opacity="1" stop-color="rgb(94.099426%, 55.491638%, 8.198547%)" offset="0.160156"/><stop stop-opacity="1" stop-color="rgb(94.099426%, 55.110168%, 8.387756%)" offset="0.171875"/><stop stop-opacity="1" stop-color="rgb(94.099426%, 54.734802%, 8.587646%)" offset="0.175781"/><stop stop-opacity="1" stop-color="rgb(94.099426%, 54.502869%, 8.599854%)" offset="0.1875"/><stop stop-opacity="1" stop-color="rgb(94.099426%, 54.272461%, 8.599854%)" offset="0.191406"/><stop stop-opacity="1" stop-color="rgb(94.099426%, 53.892517%, 8.601379%)" offset="0.203125"/><stop stop-opacity="1" stop-color="rgb(94.099426%, 53.69873%, 8.798218%)" offset="0.207031"/><stop stop-opacity="1" stop-color="rgb(94.099426%, 53.69873%, 8.996582%)" offset="0.210938"/><stop stop-opacity="1" stop-color="rgb(94.099426%, 53.511047%, 8.999634%)" offset="0.214844"/><stop stop-opacity="1" stop-color="rgb(94.099426%, 53.311157%, 8.999634%)" offset="0.21875"/><stop stop-opacity="1" stop-color="rgb(94.099426%, 53.29895%, 8.999634%)" offset="0.222656"/><stop stop-opacity="1" stop-color="rgb(94.099426%, 53.09906%, 8.999634%)" offset="0.226562"/><stop stop-opacity="1" stop-color="rgb(94.099426%, 52.89917%, 8.999634%)" offset="0.230469"/><stop stop-opacity="1" stop-color="rgb(94.099426%, 52.885437%, 8.999634%)" offset="0.234375"/><stop stop-opacity="1" stop-color="rgb(94.099426%, 52.685547%, 9.008789%)" offset="0.238281"/><stop stop-opacity="1" stop-color="rgb(94.099426%, 52.352905%, 9.208679%)" offset="0.242188"/><stop stop-opacity="1" stop-color="rgb(94.099426%, 52.107239%, 9.399414%)" offset="0.253906"/><stop stop-opacity="1" stop-color="rgb(94.099426%, 51.902771%, 9.399414%)" offset="0.257812"/><stop stop-opacity="1" stop-color="rgb(94.099426%, 51.699829%, 9.399414%)" offset="0.265625"/><stop stop-opacity="1" stop-color="rgb(94.099426%, 51.49231%, 9.407043%)" offset="0.273438"/><stop stop-opacity="1" stop-color="rgb(94.099426%, 51.187134%, 9.606934%)" offset="0.277344"/><stop stop-opacity="1" stop-color="rgb(94.099426%, 50.796509%, 9.799194%)" offset="0.285156"/><stop stop-opacity="1" stop-color="rgb(94.099426%, 50.59967%, 9.799194%)" offset="0.292969"/><stop stop-opacity="1" stop-color="rgb(94.099426%, 50.408936%, 9.799194%)" offset="0.300781"/><stop stop-opacity="1" stop-color="rgb(94.099426%, 50.109863%, 9.898376%)" offset="0.308594"/><stop stop-opacity="1" stop-color="rgb(94.099426%, 49.899292%, 10.098267%)" offset="0.3125"/><stop stop-opacity="1" stop-color="rgb(94.099426%, 49.694824%, 10.198975%)" offset="0.320312"/><stop stop-opacity="1" stop-color="rgb(94.099426%, 49.397278%, 10.198975%)" offset="0.328125"/><stop stop-opacity="1" stop-color="rgb(94.099426%, 49.099731%, 10.198975%)" offset="0.335938"/><stop stop-opacity="1" stop-color="rgb(94.099426%, 48.89679%, 10.301208%)" offset="0.34375"/><stop stop-opacity="1" stop-color="rgb(94.099426%, 48.686218%, 10.501099%)" offset="0.351562"/><stop stop-opacity="1" stop-color="rgb(94.099426%, 48.381042%, 10.598755%)" offset="0.355469"/><stop stop-opacity="1" stop-color="rgb(94.099426%, 47.991943%, 10.598755%)" offset="0.363281"/><stop stop-opacity="1" stop-color="rgb(94.099426%, 47.799683%, 10.598755%)" offset="0.371094"/><stop stop-opacity="1" stop-color="rgb(94.099426%, 47.654724%, 10.791016%)" offset="0.378906"/><stop stop-opacity="1" stop-color="rgb(94.099426%, 47.315979%, 10.990906%)" offset="0.386719"/><stop stop-opacity="1" stop-color="rgb(94.099426%, 47.102356%, 10.998535%)" offset="0.394531"/><stop stop-opacity="1" stop-color="rgb(94.099426%, 46.887207%, 10.998535%)" offset="0.402344"/><stop stop-opacity="1" stop-color="rgb(94.099426%, 46.496582%, 10.998535%)" offset="0.410156"/><stop stop-opacity="1" stop-color="rgb(94.099426%, 46.105957%, 11.192322%)" offset="0.417969"/><stop stop-opacity="1" stop-color="rgb(94.099426%, 45.904541%, 11.393738%)" offset="0.425781"/><stop stop-opacity="1" stop-color="rgb(94.099426%, 45.799255%, 11.399841%)" offset="0.433594"/><stop stop-opacity="1" stop-color="rgb(94.099426%, 45.588684%, 11.399841%)" offset="0.4375"/><stop stop-opacity="1" stop-color="rgb(94.099426%, 45.288086%, 11.399841%)" offset="0.441406"/><stop stop-opacity="1" stop-color="rgb(94.099426%, 44.902039%, 11.59668%)" offset="0.457031"/><stop stop-opacity="1" stop-color="rgb(94.099426%, 44.511414%, 11.795044%)" offset="0.464844"/><stop stop-opacity="1" stop-color="rgb(94.099426%, 44.206238%, 11.799622%)" offset="0.472656"/><stop stop-opacity="1" stop-color="rgb(94.099426%, 43.997192%, 11.799622%)" offset="0.476562"/><stop stop-opacity="1" stop-color="rgb(94.099426%, 43.79425%, 11.799622%)" offset="0.484375"/><stop stop-opacity="1" stop-color="rgb(94.099426%, 43.495178%, 11.898804%)" offset="0.492188"/><stop stop-opacity="1" stop-color="rgb(94.099426%, 43.199158%, 12.098694%)" offset="0.5"/><stop stop-opacity="1" stop-color="rgb(94.099426%, 43.099976%, 12.199402%)" offset="0.507812"/><stop stop-opacity="1" stop-color="rgb(94.099426%, 42.918396%, 12.199402%)" offset="0.511719"/><stop stop-opacity="1" stop-color="rgb(94.099426%, 42.567444%, 12.199402%)" offset="0.515625"/><stop stop-opacity="1" stop-color="rgb(94.099426%, 42.399597%, 12.199402%)" offset="0.527344"/><stop stop-opacity="1" stop-color="rgb(94.099426%, 42.391968%, 12.199402%)" offset="0.53125"/><stop stop-opacity="1" stop-color="rgb(94.099426%, 42.192078%, 12.200928%)" offset="0.535156"/><stop stop-opacity="1" stop-color="rgb(94.099426%, 41.999817%, 12.350464%)" offset="0.539062"/><stop stop-opacity="1" stop-color="rgb(94.099426%, 41.80603%, 12.498474%)" offset="0.542969"/><stop stop-opacity="1" stop-color="rgb(94.099426%, 41.426086%, 12.5%)" offset="0.546875"/><stop stop-opacity="1" stop-color="rgb(94.099426%, 41.218567%, 12.5%)" offset="0.558594"/><stop stop-opacity="1" stop-color="rgb(94.099426%, 41.178894%, 12.5%)" offset="0.5625"/><stop stop-opacity="1" stop-color="rgb(94.099426%, 40.9729%, 12.506104%)" offset="0.566406"/><stop stop-opacity="1" stop-color="rgb(94.099426%, 40.592957%, 12.705994%)" offset="0.578125"/><stop stop-opacity="1" stop-color="rgb(94.099426%, 40.39917%, 12.89978%)" offset="0.582031"/><stop stop-opacity="1" stop-color="rgb(94.099426%, 40.206909%, 12.89978%)" offset="0.585938"/><stop stop-opacity="1" stop-color="rgb(94.099426%, 39.828491%, 12.89978%)" offset="0.589844"/><stop stop-opacity="1" stop-color="rgb(94.099426%, 39.620972%, 12.89978%)" offset="0.601562"/><stop stop-opacity="1" stop-color="rgb(94.099426%, 39.579773%, 12.89978%)" offset="0.605469"/><stop stop-opacity="1" stop-color="rgb(94.099426%, 39.375305%, 12.904358%)" offset="0.609375"/><stop stop-opacity="1" stop-color="rgb(94.099426%, 38.993835%, 13.104248%)" offset="0.621094"/><stop stop-opacity="1" stop-color="rgb(94.099426%, 38.606262%, 13.299561%)" offset="0.625"/><stop stop-opacity="1" stop-color="rgb(94.099426%, 38.218689%, 13.299561%)" offset="0.636719"/><stop stop-opacity="1" stop-color="rgb(94.099426%, 38.002014%, 13.299561%)" offset="0.644531"/><stop stop-opacity="1" stop-color="rgb(94.099426%, 37.786865%, 13.302612%)" offset="0.652344"/><stop stop-opacity="1" stop-color="rgb(94.099426%, 37.446594%, 13.502502%)" offset="0.660156"/><stop stop-opacity="1" stop-color="rgb(94.099426%, 37.104797%, 13.697815%)" offset="0.667969"/><stop stop-opacity="1" stop-color="rgb(94.099426%, 36.903381%, 13.699341%)" offset="0.675781"/><stop stop-opacity="1" stop-color="rgb(94.099426%, 36.798096%, 13.699341%)" offset="0.683594"/><stop stop-opacity="1" stop-color="rgb(94.099426%, 36.58905%, 13.699341%)" offset="0.6875"/><stop stop-opacity="1" stop-color="rgb(94.099426%, 36.283875%, 13.703918%)" offset="0.691406"/><stop stop-opacity="1" stop-color="rgb(94.099426%, 35.89325%, 13.903809%)" offset="0.699219"/><stop stop-opacity="1" stop-color="rgb(94.099426%, 35.507202%, 14.099121%)" offset="0.714844"/><stop stop-opacity="1" stop-color="rgb(94.099426%, 35.205078%, 14.099121%)" offset="0.722656"/><stop stop-opacity="1" stop-color="rgb(94.099426%, 34.997559%, 14.099121%)" offset="0.726562"/><stop stop-opacity="1" stop-color="rgb(94.099426%, 34.794617%, 14.202881%)" offset="0.734375"/><stop stop-opacity="1" stop-color="rgb(94.099426%, 34.494019%, 14.402771%)" offset="0.742188"/><stop stop-opacity="1" stop-color="rgb(94.099426%, 34.197998%, 14.498901%)" offset="0.75"/><stop stop-opacity="1" stop-color="rgb(94.099426%, 34.098816%, 14.498901%)" offset="0.757812"/><stop stop-opacity="1" stop-color="rgb(94.099426%, 33.917236%, 14.498901%)" offset="0.761719"/><stop stop-opacity="1" stop-color="rgb(94.099426%, 33.717346%, 14.498901%)" offset="0.765625"/><stop stop-opacity="1" stop-color="rgb(94.099426%, 33.499146%, 14.498901%)" offset="0.769531"/><stop stop-opacity="1" stop-color="rgb(94.099426%, 33.299255%, 14.498901%)" offset="0.773438"/><stop stop-opacity="1" stop-color="rgb(94.099426%, 33.287048%, 14.498901%)" offset="0.777344"/><stop stop-opacity="1" stop-color="rgb(94.099426%, 33.087158%, 14.498901%)" offset="0.78125"/><stop stop-opacity="1" stop-color="rgb(94.099426%, 32.899475%, 14.501953%)" offset="0.785156"/><stop stop-opacity="1" stop-color="rgb(94.099426%, 32.899475%, 14.700317%)" offset="0.789062"/><stop stop-opacity="1" stop-color="rgb(94.099426%, 32.705688%, 14.897156%)" offset="0.792969"/><stop stop-opacity="1" stop-color="rgb(94.099426%, 32.354736%, 14.898682%)" offset="0.796875"/><stop stop-opacity="1" stop-color="rgb(94.099426%, 32.199097%, 14.898682%)" offset="0.808594"/><stop stop-opacity="1" stop-color="rgb(94.099426%, 31.988525%, 14.898682%)" offset="0.8125"/><stop stop-opacity="1" stop-color="rgb(94.099426%, 31.588745%, 14.898682%)" offset="0.816406"/><stop stop-opacity="1" stop-color="rgb(94.099426%, 31.39801%, 14.898682%)" offset="0.824219"/><stop stop-opacity="1" stop-color="rgb(94.099426%, 31.202698%, 15.09552%)" offset="0.832031"/><stop stop-opacity="1" stop-color="rgb(94.099426%, 30.812073%, 15.29541%)" offset="0.839844"/><stop stop-opacity="1" stop-color="rgb(94.099426%, 30.595398%, 15.299988%)" offset="0.847656"/><stop stop-opacity="1" stop-color="rgb(94.099426%, 30.380249%, 15.299988%)" offset="0.855469"/><stop stop-opacity="1" stop-color="rgb(94.099426%, 29.99115%, 15.299988%)" offset="0.863281"/><stop stop-opacity="1" stop-color="rgb(94.099426%, 29.608154%, 15.489197%)" offset="0.878906"/><stop stop-opacity="1" stop-color="rgb(94.099426%, 29.408264%, 15.689087%)" offset="0.882812"/><stop stop-opacity="1" stop-color="rgb(94.099426%, 29.217529%, 15.699768%)" offset="0.886719"/><stop stop-opacity="1" stop-color="rgb(94.099426%, 29.017639%, 15.699768%)" offset="0.890625"/><stop stop-opacity="1" stop-color="rgb(94.099426%, 28.97644%, 15.699768%)" offset="0.894531"/><stop stop-opacity="1" stop-color="rgb(94.099426%, 28.77655%, 15.699768%)" offset="0.898438"/><stop stop-opacity="1" stop-color="rgb(94.099426%, 28.585815%, 15.699768%)" offset="0.902344"/><stop stop-opacity="1" stop-color="rgb(94.099426%, 28.385925%, 15.699768%)" offset="0.90625"/><stop stop-opacity="1" stop-color="rgb(94.099426%, 28.004456%, 15.893555%)" offset="0.917969"/><stop stop-opacity="1" stop-color="rgb(94.099426%, 27.633667%, 16.093445%)" offset="0.925781"/><stop stop-opacity="1" stop-color="rgb(94.099426%, 27.278137%, 16.099548%)" offset="0.941406"/><stop stop-opacity="1" stop-color="rgb(94.099426%, 27.087402%, 16.099548%)" offset="0.945312"/><stop stop-opacity="1" stop-color="rgb(94.099426%, 26.887512%, 16.099548%)" offset="0.949219"/><stop stop-opacity="1" stop-color="rgb(94.099426%, 26.698303%, 16.099548%)" offset="0.953125"/><stop stop-opacity="1" stop-color="rgb(94.099426%, 26.502991%, 16.099548%)" offset="0.957031"/><stop stop-opacity="1" stop-color="rgb(94.099426%, 26.303101%, 16.099548%)" offset="0.964844"/><stop stop-opacity="1" stop-color="rgb(94.099426%, 26.119995%, 16.27655%)" offset="0.972656"/><stop stop-opacity="1" stop-color="rgb(94.099426%, 25.909424%, 16.47644%)" offset="0.976562"/><stop stop-opacity="1" stop-color="rgb(94.099426%, 25.686646%, 16.499329%)" offset="0.980469"/><stop stop-opacity="1" stop-color="rgb(94.099426%, 25.494385%, 16.499329%)" offset="0.988281"/><stop stop-opacity="1" stop-color="rgb(94.099426%, 25.294495%, 16.499329%)" offset="0.992188"/><stop stop-opacity="1" stop-color="rgb(94.099426%, 25.099182%, 16.499329%)" offset="1"/></radialGradient></defs><g clip-path="url(#2810ed998c)"><g clip-path="url(#6b4f5d852b)"><g clip-path="url(#6cdbb602de)"><path fill="url(#e1eb583bc2)" d="M 53.015625 20.6875 L 53.015625 5.199219 L 22.863281 5.199219 L 22.863281 20.6875 Z M 53.015625 20.6875 " fill-rule="nonzero"/></g></g></g><g clip-path="url(#5247f1a324)"><g clip-path="url(#c78352329b)"><g clip-path="url(#f43657698b)"><g clip-path="url(#bf7bdfe67b)"><path fill="url(#461c2f5e8c)" d="M 42.277344 8.347656 L 18.339844 -7.195312 L 1.425781 19.289062 L 25.363281 34.832031 Z M 42.277344 8.347656 " fill-rule="nonzero"/></g></g></g></g><g fill="#393536" fill-opacity="1"><g transform="translate(7.954631, 34.016744)"><g><path d="M 1.296875 -3.890625 L 1.296875 -2.59375 L 3.25 -2.59375 L 3.25 -3.890625 Z M 0.65625 -4.546875 L 3.890625 -4.546875 L 3.890625 0 L 3.25 0 L 3.25 -1.953125 L 1.296875 -1.953125 L 1.296875 0 L 0.65625 0 Z M 0.65625 -4.546875 "/></g></g></g><g fill="#393536" fill-opacity="1"><g transform="translate(13.900207, 34.016744)"><g><path d="M 0.65625 -3.25 L 1.296875 -3.25 L 1.296875 -1.109375 L 1.765625 -0.65625 L 3.25 -0.65625 L 3.25 -3.25 L 3.890625 -3.25 L 3.890625 0 L 1.484375 0 L 0.65625 -0.828125 Z M 0.65625 -3.25 "/></g></g></g><g fill="#393536" fill-opacity="1"><g transform="translate(19.845784, 34.016744)"><g><path d="M 0.65625 -3.25 L 3.890625 -3.25 L 3.890625 1.296875 L 0.65625 1.296875 L 0.65625 0.65625 L 3.25 0.65625 L 3.25 0 L 0.65625 0 Z M 1.296875 -2.59375 L 1.296875 -0.65625 L 3.25 -0.65625 L 3.25 -2.59375 Z M 1.296875 -2.59375 "/></g></g></g><g fill="#393536" fill-opacity="1"><g transform="translate(25.791361, 34.016744)"><g><path d="M 0.65625 -3.25 L 3.0625 -3.25 L 3.890625 -2.40625 L 3.890625 0 L 3.25 0 L 3.25 -2.125 L 2.78125 -2.59375 L 2.59375 -2.59375 L 2.59375 0 L 1.953125 0 L 1.953125 -2.59375 L 1.296875 -2.59375 L 1.296875 0 L 0.65625 0 Z M 0.65625 -3.25 "/></g></g></g><g fill="#393536" fill-opacity="1"><g transform="translate(31.736937, 34.016744)"><g><path d="M 0.65625 -3.25 L 3.890625 -3.25 L 3.890625 -1.296875 L 1.296875 -1.296875 L 1.296875 -0.65625 L 3.890625 -0.65625 L 3.890625 0 L 0.65625 0 Z M 1.296875 -2.59375 L 1.296875 -1.953125 L 3.25 -1.953125 L 3.25 -2.59375 Z M 1.296875 -2.59375 "/></g></g></g><g fill="#393536" fill-opacity="1"><g transform="translate(37.682513, 34.016744)"><g><path d="M 0.65625 -3.25 L 3.0625 -3.25 L 3.890625 -2.40625 L 3.890625 0 L 3.25 0 L 3.25 -2.125 L 2.78125 -2.59375 L 1.296875 -2.59375 L 1.296875 0 L 0.65625 0 Z M 0.65625 -3.25 "/></g></g></g><g fill="#393536" fill-opacity="1"><g transform="translate(43.628089, 34.016744)"><g><path d="M 1.296875 -4.546875 L 1.953125 -4.546875 L 1.953125 -3.25 L 3.25 -3.25 L 3.25 -2.59375 L 1.953125 -2.59375 L 1.953125 -0.65625 L 3.25 -0.65625 L 3.25 0 L 1.296875 0 L 1.296875 -2.59375 L 0.65625 -2.59375 L 0.65625 -3.25 L 1.296875 -3.25 Z M 1.296875 -4.546875 "/></g></g></g><g fill="#393536" fill-opacity="1"><g transform="translate(48.925152, 34.016744)"><g><path d="M 0.65625 -3.25 L 3.890625 -3.25 L 3.890625 -1.296875 L 1.296875 -1.296875 L 1.296875 -0.65625 L 3.890625 -0.65625 L 3.890625 0 L 0.65625 0 Z M 1.296875 -2.59375 L 1.296875 -1.953125 L 3.25 -1.953125 L 3.25 -2.59375 Z M 1.296875 -2.59375 "/></g></g></g><g fill="#393536" fill-opacity="1"><g transform="translate(54.870728, 34.016744)"><g><path d="M 3.25 -4.546875 L 3.890625 -4.546875 L 3.890625 0 L 0.65625 0 L 0.65625 -3.25 L 3.25 -3.25 Z M 1.296875 -2.59375 L 1.296875 -0.65625 L 3.25 -0.65625 L 3.25 -2.59375 Z M 1.296875 -2.59375 "/></g></g></g><g fill="#393536" fill-opacity="1"><g transform="translate(5.632139, 41.798916)"><g><path d="M 1.296875 -3.890625 L 1.296875 -0.65625 L 2.78125 -0.65625 L 3.25 -1.109375 L 3.25 -3.421875 L 2.78125 -3.890625 Z M 0.65625 -4.546875 L 3.0625 -4.546875 L 3.890625 -3.703125 L 3.890625 -0.828125 L 3.0625 0 L 0.65625 0 Z M 0.65625 -4.546875 "/></g></g></g><g fill="#393536" fill-opacity="1"><g transform="translate(11.577715, 41.798916)"><g><path d="M 0.65625 -3.25 L 3.890625 -3.25 L 3.890625 -1.296875 L 1.296875 -1.296875 L 1.296875 -0.65625 L 3.890625 -0.65625 L 3.890625 0 L 0.65625 0 Z M 1.296875 -2.59375 L 1.296875 -1.953125 L 3.25 -1.953125 L 3.25 -2.59375 Z M 1.296875 -2.59375 "/></g></g></g><g fill="#393536" fill-opacity="1"><g transform="translate(17.523292, 41.798916)"><g><path d="M 0.65625 -3.25 L 1.296875 -3.25 L 1.296875 -1.765625 L 2.265625 -0.796875 L 3.25 -1.765625 L 3.25 -3.25 L 3.890625 -3.25 L 3.890625 -1.484375 L 2.40625 0 L 2.125 0 L 0.65625 -1.484375 Z M 0.65625 -3.25 "/></g></g></g><g fill="#393536" fill-opacity="1"><g transform="translate(23.468869, 41.798916)"><g><path d="M 0.65625 -3.25 L 3.890625 -3.25 L 3.890625 -1.296875 L 1.296875 -1.296875 L 1.296875 -0.65625 L 3.890625 -0.65625 L 3.890625 0 L 0.65625 0 Z M 1.296875 -2.59375 L 1.296875 -1.953125 L 3.25 -1.953125 L 3.25 -2.59375 Z M 1.296875 -2.59375 "/></g></g></g><g fill="#393536" fill-opacity="1"><g transform="translate(29.414445, 41.798916)"><g><path d="M 0.65625 -4.546875 L 1.953125 -4.546875 L 1.953125 -0.65625 L 2.59375 -0.65625 L 2.59375 0 L 1.296875 0 L 1.296875 -3.890625 L 0.65625 -3.890625 Z M 0.65625 -4.546875 "/></g></g></g><g fill="#393536" fill-opacity="1"><g transform="translate(34.062995, 41.798916)"><g><path d="M 0.65625 -3.25 L 3.890625 -3.25 L 3.890625 0 L 0.65625 0 Z M 1.296875 -2.59375 L 1.296875 -0.65625 L 3.25 -0.65625 L 3.25 -2.59375 Z M 1.296875 -2.59375 "/></g></g></g><g fill="#393536" fill-opacity="1"><g transform="translate(40.008571, 41.798916)"><g><path d="M 0.65625 -3.25 L 3.890625 -3.25 L 3.890625 0 L 1.296875 0 L 1.296875 1.296875 L 0.65625 1.296875 Z M 1.296875 -2.59375 L 1.296875 -0.65625 L 3.25 -0.65625 L 3.25 -2.59375 Z M 1.296875 -2.59375 "/></g></g></g><g fill="#393536" fill-opacity="1"><g transform="translate(45.954147, 41.798916)"><g><path d="M 0.65625 -3.25 L 3.890625 -3.25 L 3.890625 -1.296875 L 1.296875 -1.296875 L 1.296875 -0.65625 L 3.890625 -0.65625 L 3.890625 0 L 0.65625 0 Z M 1.296875 -2.59375 L 1.296875 -1.953125 L 3.25 -1.953125 L 3.25 -2.59375 Z M 1.296875 -2.59375 "/></g></g></g><g fill="#393536" fill-opacity="1"><g transform="translate(51.899722, 41.798916)"><g><path d="M 0.65625 -3.25 L 1.296875 -3.25 L 1.296875 -2.40625 L 2.125 -3.25 L 3.25 -3.25 L 3.25 -2.59375 L 2.40625 -2.59375 L 1.296875 -1.484375 L 1.296875 0 L 0.65625 0 Z M 0.65625 -3.25 "/></g></g></g><g fill="#393536" fill-opacity="1"><g transform="translate(57.196788, 41.798916)"><g><path d="M 0.65625 -3.25 L 3.890625 -3.25 L 3.890625 -2.59375 L 1.296875 -2.59375 L 1.296875 -1.953125 L 3.890625 -1.953125 L 3.890625 0 L 0.65625 0 L 0.65625 -0.65625 L 3.25 -0.65625 L 3.25 -1.296875 L 0.65625 -1.296875 Z M 0.65625 -3.25 "/></g></g></g></svg>